# xmcd CD database file
#
# Track frame offsets:
#	150
#	7530
#	25942
#	47377
#	67447
#	74227
#	90442
#	113682
#	137250
#	156462
#	160932
#	178920
#	197145
#	214215
#	231552
#
# Disc length: 3156 seconds
#
# Revision: 3
# Processed by: cddbd v1.5PL3 Copyright (c) Steve Scherf et al.
# Submitted via: CDex 1.51
#
DISCID=d40c520f
DTITLE=踊る大捜査線 - Rhythm And Police Original Sound Track 1
DYEAR=1997
DGENRE=Soundtrack
TTITLE0=The Intro
TTITLE1=Rhythm And Police
TTITLE2=C.X.
TTITLE3=Ding Dong
TTITLE4=Life
TTITLE5=Love Somebody (Jungle Version)
TTITLE6=G-Groove
TTITLE7=Moon Light
TTITLE8=Search Out
TTITLE9=Storker
TTITLE10=Red
TTITLE11=OTOBOKE
TTITLE12=Give Me A Baby
TTITLE13=Love Somebody (Sweet Love Version)
TTITLE14=The Outro
EXTD=YEAR: 1997
EXTT0=
EXTT1=
EXTT2=
EXTT3=
EXTT4=
EXTT5=
EXTT6=
EXTT7=
EXTT8=
EXTT9=
EXTT10=
EXTT11=
EXTT12=
EXTT13=
EXTT14=
PLAYORDER=
